<svg viewBox="0 0 1200 800" xmlns="http://www.w3.org/2000/svg">
  <defs>
    <linearGradient id="frontendGrad" x1="0%" y1="0%" x2="100%" y2="100%">
      <stop offset="0%" style="stop-color:#3B82F6;stop-opacity:0.8"/>
      <stop offset="100%" style="stop-color:#1E40AF;stop-opacity:0.9"/>
    </linearGradient>
    <linearGradient id="backendGrad" x1="0%" y1="0%" x2="100%" y2="100%">
      <stop offset="0%" style="stop-color:#10B981;stop-opacity:0.8"/>
      <stop offset="100%" style="stop-color:#047857;stop-opacity:0.9"/>
    </linearGradient>
    <linearGradient id="dbGrad" x1="0%" y1="0%" x2="100%" y2="100%">
      <stop offset="0%" style="stop-color:#F59E0B;stop-opacity:0.8"/>
      <stop offset="100%" style="stop-color:#D97706;stop-opacity:0.9"/>
    </linearGradient>
    <linearGradient id="engineGrad" x1="0%" y1="0%" x2="100%" y2="100%">
      <stop offset="0%" style="stop-color:#EF4444;stop-opacity:0.8"/>
      <stop offset="100%" style="stop-color:#DC2626;stop-opacity:0.9"/>
    </linearGradient>
    <filter id="shadow" x="-20%" y="-20%" width="140%" height="140%">
      <feDropShadow dx="2" dy="2" stdDeviation="3" flood-opacity="0.3"/>
    </filter>
  </defs>

  <!-- Background -->
  <rect width="1200" height="800" fill="#0F172A"/>
  
  <!-- Title -->
  <text x="600" y="30" text-anchor="middle" fill="#F1F5F9" font-size="24" font-weight="bold">Game MVP System Architecture</text>
  
  <!-- Frontend Layer -->
  <g id="frontend">
    <rect x="50" y="70" width="300" height="180" rx="10" fill="url(#frontendGrad)" filter="url(#shadow)"/>
    <text x="200" y="95" text-anchor="middle" fill="white" font-size="16" font-weight="bold">React Frontend</text>
    <text x="200" y="115" text-anchor="middle" fill="#E2E8F0" font-size="12">(TypeScript + Tailwind)</text>
    
    <!-- Frontend Components -->
    <rect x="70" y="130" width="80" height="30" rx="5" fill="#1E40AF" stroke="#3B82F6" stroke-width="1"/>
    <text x="110" y="148" text-anchor="middle" fill="white" font-size="10">Multi-Screen UI</text>
    
    <rect x="160" y="130" width="80" height="30" rx="5" fill="#1E40AF" stroke="#3B82F6" stroke-width="1"/>
    <text x="200" y="148" text-anchor="middle" fill="white" font-size="10">Terminal Style</text>
    
    <rect x="250" y="130" width="80" height="30" rx="5" fill="#1E40AF" stroke="#3B82F6" stroke-width="1"/>
    <text x="290" y="148" text-anchor="middle" fill="white" font-size="10">Combat Log</text>
    
    <rect x="70" y="170" width="80" height="30" rx="5" fill="#1E40AF" stroke="#3B82F6" stroke-width="1"/>
    <text x="110" y="188" text-anchor="middle" fill="white" font-size="10">Lobby Screen</text>
    
    <rect x="160" y="170" width="80" height="30" rx="5" fill="#1E40AF" stroke="#3B82F6" stroke-width="1"/>
    <text x="200" y="188" text-anchor="middle" fill="white" font-size="10">Battle Screen</text>
    
    <rect x="250" y="170" width="80" height="30" rx="5" fill="#1E40AF" stroke="#3B82F6" stroke-width="1"/>
    <text x="290" y="188" text-anchor="middle" fill="white" font-size="10">Results Screen</text>
  </g>

  <!-- Backend API Layer -->
  <g id="backend">
    <rect x="450" y="70" width="300" height="280" rx="10" fill="url(#backendGrad)" filter="url(#shadow)"/>
    <text x="600" y="95" text-anchor="middle" fill="white" font-size="16" font-weight="bold">Node.js API Backend</text>
    <text x="600" y="115" text-anchor="middle" fill="#D1FAE5" font-size="12">(TypeScript)</text>
    
    <!-- WebSocket Server -->
    <rect x="470" y="130" width="120" height="40" rx="5" fill="#047857" stroke="#10B981" stroke-width="2"/>
    <text x="530" y="148" text-anchor="middle" fill="white" font-size="11" font-weight="bold">WebSocket Server</text>
    <text x="530" y="162" text-anchor="middle" fill="#D1FAE5" font-size="9">Real-time Turns</text>
    
    <!-- Match Resolution Engine -->
    <rect x="610" y="130" width="120" height="60" rx="5" fill="url(#engineGrad)" stroke="#EF4444" stroke-width="2"/>
    <text x="670" y="148" text-anchor="middle" fill="white" font-size="11" font-weight="bold">Match Resolution</text>
    <text x="670" y="162" text-anchor="middle" fill="white" font-size="11" font-weight="bold">Engine</text>
    <text x="670" y="176" text-anchor="middle" fill="#FEE2E2" font-size="9">(Embedded)</text>
    
    <!-- API Endpoints -->
    <rect x="470" y="200" width="100" height="30" rx="5" fill="#047857" stroke="#10B981" stroke-width="1"/>
    <text x="520" y="218" text-anchor="middle" fill="white" font-size="10">Auth and Users</text>
    
    <rect x="580" y="200" width="100" height="30" rx="5" fill="#047857" stroke="#10B981" stroke-width="1"/>
    <text x="630" y="218" text-anchor="middle" fill="white" font-size="10">Match History</text>
    
    <!-- Matchmaking Service -->
    <rect x="470" y="240" width="120" height="40" rx="5" fill="#047857" stroke="#10B981" stroke-width="1"/>
    <text x="530" y="258" text-anchor="middle" fill="white" font-size="11">Matchmaking</text>
    <text x="530" y="272" text-anchor="middle" fill="#D1FAE5" font-size="9">Quick-Join and PvE</text>
    
    <!-- PvE Bot Module -->
    <rect x="610" y="240" width="120" height="40" rx="5" fill="#7C2D12" stroke="#EA580C" stroke-width="2"/>
    <text x="670" y="258" text-anchor="middle" fill="white" font-size="11" font-weight="bold">PvE Bot Module</text>
    <text x="670" y="272" text-anchor="middle" fill="#FED7AA" font-size="9">Static AI Logic</text>
    
    <!-- Status Effect Manager -->
    <rect x="470" y="290" width="120" height="30" rx="5" fill="#047857" stroke="#10B981" stroke-width="1"/>
    <text x="530" y="308" text-anchor="middle" fill="white" font-size="10">Status Effects</text>
    
    <!-- XP & Rewards -->
    <rect x="610" y="290" width="120" height="30" rx="5" fill="#047857" stroke="#10B981" stroke-width="1"/>
    <text x="670" y="308" text-anchor="middle" fill="white" font-size="10">XP and Rewards</text>
  </g>

  <!-- Ability Registry -->
  <g id="abilities">
    <rect x="850" y="70" width="250" height="120" rx="10" fill="#581C87" stroke="#7C3AED" stroke-width="2" filter="url(#shadow)"/>
    <text x="975" y="95" text-anchor="middle" fill="white" font-size="14" font-weight="bold">JSON Ability Registry</text>
    <text x="975" y="115" text-anchor="middle" fill="#DDD6FE" font-size="11">(File-based for MVP)</text>
    
    <rect x="870" y="130" width="70" height="25" rx="3" fill="#6B21A8" stroke="#7C3AED" stroke-width="1"/>
    <text x="905" y="145" text-anchor="middle" fill="white" font-size="9">Warrior.json</text>
    
    <rect x="950" y="130" width="70" height="25" rx="3" fill="#6B21A8" stroke="#7C3AED" stroke-width="1"/>
    <text x="985" y="145" text-anchor="middle" fill="white" font-size="9">Mage.json</text>
    
    <rect x="1030" y="130" width="70" height="25" rx="3" fill="#6B21A8" stroke="#7C3AED" stroke-width="1"/>
    <text x="1065" y="145" text-anchor="middle" fill="white" font-size="9">Rogue.json</text>
    
    <rect x="910" y="160" width="70" height="25" rx="3" fill="#6B21A8" stroke="#7C3AED" stroke-width="1"/>
    <text x="945" y="175" text-anchor="middle" fill="white" font-size="9">Healer.json</text>
    
    <rect x="990" y="160" width="70" height="25" rx="3" fill="#6B21A8" stroke="#7C3AED" stroke-width="1"/>
    <text x="1025" y="175" text-anchor="middle" fill="white" font-size="9">Tank.json</text>
  </g>

  <!-- Database Layer -->
  <g id="database">
    <rect x="200" y="450" width="800" height="200" rx="10" fill="url(#dbGrad)" filter="url(#shadow)"/>
    <text x="600" y="475" text-anchor="middle" fill="white" font-size="16" font-weight="bold">PostgreSQL / Supabase Database</text>
    
    <!-- Database Tables -->
    <rect x="230" y="500" width="120" height="80" rx="5" fill="#D97706" stroke="#F59E0B" stroke-width="1"/>
    <text x="290" y="520" text-anchor="middle" fill="white" font-size="12" font-weight="bold">Users Table</text>
    <text x="290" y="540" text-anchor="middle" fill="#FEF3C7" font-size="10">id, username</text>
    <text x="290" y="555" text-anchor="middle" fill="#FEF3C7" font-size="10">level, xp</text>
    <text x="290" y="570" text-anchor="middle" fill="#FEF3C7" font-size="10">class_id</text>
    
    <rect x="370" y="500" width="120" height="80" rx="5" fill="#D97706" stroke="#F59E0B" stroke-width="1"/>
    <text x="430" y="520" text-anchor="middle" fill="white" font-size="12" font-weight="bold">Matches Table</text>
    <text x="430" y="540" text-anchor="middle" fill="#FEF3C7" font-size="10">match_id</text>
    <text x="430" y="555" text-anchor="middle" fill="#FEF3C7" font-size="10">players, result</text>
    <text x="430" y="570" text-anchor="middle" fill="#FEF3C7" font-size="10">timestamp</text>
    
    <rect x="510" y="500" width="120" height="80" rx="5" fill="#D97706" stroke="#F59E0B" stroke-width="1"/>
    <text x="570" y="520" text-anchor="middle" fill="white" font-size="12" font-weight="bold">Turns Table</text>
    <text x="570" y="540" text-anchor="middle" fill="#FEF3C7" font-size="10">turn_id</text>
    <text x="570" y="555" text-anchor="middle" fill="#FEF3C7" font-size="10">match_id</text>
    <text x="570" y="570" text-anchor="middle" fill="#FEF3C7" font-size="10">action_data</text>
    
    <rect x="650" y="500" width="120" height="80" rx="5" fill="#D97706" stroke="#F59E0B" stroke-width="1"/>
    <text x="710" y="520" text-anchor="middle" fill="white" font-size="12" font-weight="bold">Classes Table</text>
    <text x="710" y="540" text-anchor="middle" fill="#FEF3C7" font-size="10">class_id, name</text>
    <text x="710" y="555" text-anchor="middle" fill="#FEF3C7" font-size="10">abilities</text>
    <text x="710" y="570" text-anchor="middle" fill="#FEF3C7" font-size="10">progression</text>

    <rect x="790" y="500" width="120" height="80" rx="5" fill="#D97706" stroke="#F59E0B" stroke-width="1"/>
    <text x="850" y="520" text-anchor="middle" fill="white" font-size="12" font-weight="bold">User Progress</text>
    <text x="850" y="540" text-anchor="middle" fill="#FEF3C7" font-size="10">• user_id</text>
    <text x="850" y="555" text-anchor="middle" fill="#FEF3C7" font-size="10">• unlocked abilities</text>
    <text x="850" y="570" text-anchor="middle" fill="#FEF3C7" font-size="10">• cosmetics</text>
  </g>

  <!-- Optional Redis Cache -->
  <g id="redis">
    <rect x="850" y="230" width="200" height="80" rx="10" fill="#7F1D1D" stroke="#DC2626" stroke-width="2" stroke-dasharray="5,5" filter="url(#shadow)"/>
    <text x="950" y="255" text-anchor="middle" fill="white" font-size="14" font-weight="bold">Redis Cache</text>
    <text x="950" y="275" text-anchor="middle" fill="#FECACA" font-size="11">(Optional)</text>
    <text x="950" y="290" text-anchor="middle" fill="#FEE2E2" font-size="10">Matchmaking Queue</text>
  </g>

  <!-- Future Features Box -->
  <g id="future">
    <rect x="50" y="700" width="1100" height="80" rx="10" fill="#1F2937" stroke="#6B7280" stroke-width="2" stroke-dasharray="10,5" filter="url(#shadow)"/>
    <text x="600" y="725" text-anchor="middle" fill="#9CA3AF" font-size="16" font-weight="bold">Future Features (Post-MVP)</text>
    
    <rect x="80" y="740" width="150" height="30" rx="5" fill="#374151" stroke="#6B7280" stroke-width="1"/>
    <text x="155" y="758" text-anchor="middle" fill="#D1D5DB" font-size="10">Blockchain Integration</text>
    
    <rect x="250" y="740" width="120" height="30" rx="5" fill="#374151" stroke="#6B7280" stroke-width="1"/>
    <text x="310" y="758" text-anchor="middle" fill="#D1D5DB" font-size="10">NFT Cosmetics</text>
    
    <rect x="390" y="740" width="140" height="30" rx="5" fill="#374151" stroke="#6B7280" stroke-width="1"/>
    <text x="460" y="758" text-anchor="middle" fill="#D1D5DB" font-size="10">Cosmetics Marketplace</text>
    
    <rect x="550" y="740" width="120" height="30" rx="5" fill="#374151" stroke="#6B7280" stroke-width="1"/>
    <text x="610" y="758" text-anchor="middle" fill="#D1D5DB" font-size="10">Wager Contracts</text>
    
    <rect x="690" y="740" width="100" height="30" rx="5" fill="#374151" stroke="#6B7280" stroke-width="1"/>
    <text x="740" y="758" text-anchor="middle" fill="#D1D5DB" font-size="10">Match Replays</text>
    
    <rect x="810" y="740" width="120" height="30" rx="5" fill="#374151" stroke="#6B7280" stroke-width="1"/>
    <text x="870" y="758" text-anchor="middle" fill="#D1D5DB" font-size="10">Scalable Bot AI</text>
    
    <rect x="950" y="740" width="120" height="30" rx="5" fill="#374151" stroke="#6B7280" stroke-width="1"/>
    <text x="1010" y="758" text-anchor="middle" fill="#D1D5DB" font-size="10">Async Matches</text>
  </g>

  <!-- Connection Lines -->
  
  <!-- Frontend to Backend WebSocket -->
  <path d="M 350 160 Q 400 160 450 160" stroke="#3B82F6" stroke-width="3" fill="none" marker-end="url(#arrowhead)"/>
  <text x="375" y="150" text-anchor="middle" fill="#60A5FA" font-size="10" font-weight="bold">WebSocket</text>
  
  <!-- Backend to Database -->
  <path d="M 600 350 Q 600 400 600 450" stroke="#10B981" stroke-width="3" fill="none" marker-end="url(#arrowhead)"/>
  <text x="620" y="400" fill="#34D399" font-size="10" font-weight="bold">SQL Queries</text>
  
  <!-- Backend to Abilities -->
  <path d="M 750 160 Q 800 160 850 160" stroke="#10B981" stroke-width="3" fill="none" marker-end="url(#arrowhead)"/>
  <text x="800" y="150" text-anchor="middle" fill="#34D399" font-size="10" font-weight="bold">Load JSON</text>
  
  <!-- Backend to Redis (optional) -->
  <path d="M 750 250 Q 800 250 850 270" stroke="#10B981" stroke-width="2" stroke-dasharray="5,5" fill="none" marker-end="url(#arrowhead)"/>
  <text x="800" y="240" text-anchor="middle" fill="#F87171" font-size="9">Optional</text>

  <!-- Arrow marker definition -->
  <defs>
    <marker id="arrowhead" markerWidth="10" markerHeight="7" refX="10" refY="3.5" orient="auto">
      <polygon points="0 0, 10 3.5, 0 7" fill="#60A5FA"/>
    </marker>
  </defs>

  <!-- Data Flow Labels -->
  <g id="dataflow">
    <text x="100" y="380" fill="#94A3B8" font-size="12" font-weight="bold">Data Flow:</text>
    <text x="100" y="400" fill="#CBD5E1" font-size="10">1. User action → WebSocket → Match Engine</text>
    <text x="100" y="415" fill="#CBD5E1" font-size="10">2. Engine processes → Updates DB → Broadcasts result</text>
    <text x="100" y="430" fill="#CBD5E1" font-size="10">3. Real-time UI updates via WebSocket</text>
  </g>

</svg>